<svg xmlns="http://www.w3.org/2000/svg" xmlns:xlink="http://www.w3.org/1999/xlink" preserveAspectRatio="xMidYMid" width="43" height="43" viewBox="0 0 43 43">
  <defs>
    <style>

      .cls-2 {
        fill: #ffffff;
      }
    </style>
  </defs>
  <path d="M42.992,40.913 C42.992,40.913 40.904,43.004 40.904,43.004 C40.904,43.004 21.494,23.564 21.494,23.564 C21.494,23.564 2.096,42.982 2.096,42.982 C2.096,42.982 0.008,40.892 0.008,40.892 C0.008,40.892 19.392,21.487 19.392,21.487 C19.392,21.487 0.008,2.082 0.008,2.082 C0.008,2.082 2.096,-0.008 2.096,-0.008 C2.096,-0.008 21.505,19.422 21.505,19.422 C21.505,19.422 40.904,-0.008 40.904,-0.008 C40.904,-0.008 42.992,2.083 42.992,2.083 C42.992,2.083 23.608,21.498 23.608,21.498 C23.608,21.498 42.992,40.913 42.992,40.913 Z" id="path-1" class="cls-2" fill-rule="evenodd"/>
</svg>
